<?xml version="1.0" encoding="UTF-8"?>
<svg version="1.1" xmlns="http://www.w3.org/2000/svg" width="48" height="48">
<path d="M0 0 C4.68796317 2.8950501 8.77605467 6.42344712 10.234375 11.89453125 C11.16656452 18.74158704 11.3930195 24.99387098 7.671875 31.01953125 C3.66347868 35.99068326 0.31000422 38.47580101 -6.0078125 39.3359375 C-13.1275177 39.69575056 -18.34453314 39.19135672 -23.98828125 34.640625 C-29.08369757 29.63479842 -30.03494232 26.05750776 -30.390625 19.01953125 C-30.17838344 12.13997715 -28.58962241 7.80486419 -23.765625 2.89453125 C-17.29271618 -2.6344117 -7.84970384 -3.13766411 0 0 Z " fill="#FFDC75" transform="translate(33.765625,5.10546875)"/>
<path d="M0 0 C4.68796317 2.8950501 8.77605467 6.42344712 10.234375 11.89453125 C11.16656452 18.74158704 11.3930195 24.99387098 7.671875 31.01953125 C3.66347868 35.99068326 0.31000422 38.47580101 -6.0078125 39.3359375 C-13.1275177 39.69575056 -18.34453314 39.19135672 -23.98828125 34.640625 C-29.08369757 29.63479842 -30.03494232 26.05750776 -30.390625 19.01953125 C-30.17838344 12.13997715 -28.58962241 7.80486419 -23.765625 2.89453125 C-17.29271618 -2.6344117 -7.84970384 -3.13766411 0 0 Z M-23.078125 9.51953125 C-26.24128262 13.97138271 -26.25399916 17.54050345 -25.765625 22.89453125 C-23.80128461 28.56929238 -20.13761838 32.20853456 -14.765625 34.89453125 C-8.94263353 35.28931033 -4.92214022 34.95024397 0.234375 31.89453125 C3.83594785 28.43606725 6.57759337 24.95524747 6.796875 19.83203125 C5.98160414 14.12513522 4.64482863 9.84850716 0.234375 6.01953125 C-8.12979056 0.09491398 -16.52482606 2.08065137 -23.078125 9.51953125 Z " fill="#FFC108" transform="translate(33.765625,5.10546875)"/>
<path d="M0 0 C1.32 0.66 2.64 1.32 4 2 C4 2.99 4 3.98 4 5 C3.34 5 2.68 5 2 5 C2 4.34 2 3.68 2 3 C1.34 3 0.68 3 0 3 C0 3.99 0 4.98 0 6 C1.32 6.33 2.64 6.66 4 7 C4 8.65 4 10.3 4 12 C2.02 12.99 2.02 12.99 0 14 C-0.99 13.34 -1.98 12.68 -3 12 C-3 11.01 -3 10.02 -3 9 C-2.34 9 -1.68 9 -1 9 C-1 9.66 -1 10.32 -1 11 C-0.01 11 0.98 11 2 11 C1.154375 10.2575 0.30875 9.515 -0.5625 8.75 C-3 6 -3 6 -2.9375 3.8125 C-2 2 -2 2 0 0 Z " fill="#FFC518" transform="translate(23,17)"/>
<path d="M0 0 C0.8353125 0.37125 0.8353125 0.37125 1.6875 0.75 C1.6875 1.74 1.6875 2.73 1.6875 3.75 C0.6975 3.75 -0.2925 3.75 -1.3125 3.75 C-1.3125 4.41 -1.3125 5.07 -1.3125 5.75 C-2.6325 5.75 -3.9525 5.75 -5.3125 5.75 C-5.3125 6.74 -5.3125 7.73 -5.3125 8.75 C-6.6325 8.42 -7.9525 8.09 -9.3125 7.75 C-7.69865111 3.642021 -4.79776509 -0.51867731 0 0 Z " fill="#FFD760" transform="translate(19.3125,9.25)"/>
<path d="M0 0 C2.625 0.9375 2.625 0.9375 5 2 C4.67 3.32 4.34 4.64 4 6 C3.34 6 2.68 6 2 6 C2 5.01 2 4.02 2 3 C0.68 3.33 -0.64 3.66 -2 4 C-2 3.01 -2 2.02 -2 1 C-1.34 0.67 -0.68 0.34 0 0 Z " fill="#FFD351" transform="translate(29,9)"/>
<path d="M0 0 C1.32 0.33 2.64 0.66 4 1 C4 1.99 4 2.98 4 4 C3.01 4 2.02 4 1 4 C1 4.66 1 5.32 1 6 C0.01 6 -0.98 6 -2 6 C-1.34 4.02 -0.68 2.04 0 0 Z " fill="#FFD352" transform="translate(17,9)"/>
<path d="M0 0 C0.66 0 1.32 0 2 0 C2 0.66 2 1.32 2 2 C2.66 2 3.32 2 4 2 C3.67 3.65 3.34 5.3 3 7 C1.68 6.67 0.36 6.34 -1 6 C-1 5.34 -1 4.68 -1 4 C-0.34 4 0.32 4 1 4 C0.67 2.68 0.34 1.36 0 0 Z " fill="#FFD148" transform="translate(36,24)"/>
<path d="M0 0 C1.32 0 2.64 0 4 0 C5.04449911 3.13349732 4.93423645 3.98968256 4 7 C3.34 7 2.68 7 2 7 C2 5.68 2 4.36 2 3 C1.34 3 0.68 3 0 3 C0 2.01 0 1.02 0 0 Z " fill="#FFD34F" transform="translate(34,15)"/>
</svg>
